<svg width="165" height="280" viewBox="0 0 165 280" fill="none" xmlns="http://www.w3.org/2000/svg">
<path d="M162.902 40C164.236 45.3333 164.902 52 164.902 60C164.902 67.6667 164.236 74.3333 162.902 80C164.236 85.3333 164.902 92 164.902 100C164.902 107.667 164.236 114.333 162.902 120C164.236 125.333 164.902 132 164.902 140C164.902 147.667 164.236 154.333 162.902 160C164.236 165.333 164.902 172 164.902 180C164.902 187.667 164.236 194.333 162.902 200C164.236 205.333 164.902 212 164.902 220C164.902 227.667 164.236 234.333 162.902 240C164.236 245.333 164.902 252 164.902 260C164.902 267.667 164.236 274.333 162.902 280H122.902C121.569 274.333 120.902 267.667 120.902 260C120.902 252 121.569 245.333 122.902 240H97.9023C96.569 234.333 95.9023 227.667 95.9023 220C95.9023 212 96.569 205.333 97.9023 200H82.9023C81.569 194.333 80.9023 187.667 80.9023 180C80.9023 172 81.569 165.333 82.9023 160H62.9023C61.569 154.333 60.9023 147.667 60.9023 140C60.9023 132 61.569 125.333 62.9023 120H42.9023C44.2357 125.333 44.9023 132 44.9023 140C44.9023 147.667 44.2357 154.333 42.9023 160C44.2357 165.333 44.9023 172 44.9023 180C44.9023 187.667 44.2357 194.333 42.9023 200C44.2357 205.333 44.9023 212 44.9023 220C44.9023 227.667 44.2357 234.333 42.9023 240C44.2357 245.333 44.9023 252 44.9023 260C44.9023 267.667 44.2357 274.333 42.9023 280H2.90235C1.56901 274.333 0.902345 267.667 0.902345 260C0.902345 252 1.56901 245.333 2.90235 240C1.56901 234.333 0.902345 227.667 0.902345 220C0.902345 212 1.56901 205.333 2.90235 200C1.56901 194.333 0.902345 187.667 0.902345 180C0.902345 172 1.56901 165.333 2.90235 160C1.56901 154.333 0.902345 147.667 0.902345 140C0.902345 132 1.56901 125.333 2.90235 120C1.56901 114.333 0.902345 107.667 0.902345 100C0.902345 92 1.56901 85.3333 2.90235 80C1.56901 74.3333 0.902345 67.6667 0.902345 60C0.902345 52 1.56901 45.3333 2.90235 40C1.56901 34.3333 0.902345 27.6667 0.902345 20C0.902345 12 1.56901 5.33332 2.90235 -1.19209e-06H52.9023C54.2357 5.33332 54.9023 12 54.9023 20C54.9023 27.6667 54.2357 34.3333 52.9023 40H67.9023C69.2357 45.3333 69.9023 52 69.9023 60C69.9023 67.6667 69.2357 74.3333 67.9023 80H82.9023C84.2357 85.3333 84.9023 92 84.9023 100C84.9023 107.667 84.2357 114.333 82.9023 120H102.902C104.236 125.333 104.902 132 104.902 140C104.902 147.667 104.236 154.333 102.902 160H122.902C121.569 154.333 120.902 147.667 120.902 140C120.902 132 121.569 125.333 122.902 120C121.569 114.333 120.902 107.667 120.902 100C120.902 92 121.569 85.3333 122.902 80C121.569 74.3333 120.902 67.6667 120.902 60C120.902 52 121.569 45.3333 122.902 40C121.569 34.3333 120.902 27.6667 120.902 20C120.902 12 121.569 5.33332 122.902 -1.19209e-06H162.902C164.236 5.33332 164.902 12 164.902 20C164.902 27.6667 164.236 34.3333 162.902 40Z" fill="#00FF00"/>
</svg>
